<?xml version="1.0" encoding="UTF-8" standalone="no"?>
<svg
   xmlns:dc="http://purl.org/dc/elements/1.1/"
   xmlns:cc="http://creativecommons.org/ns#"
   xmlns:rdf="http://www.w3.org/1999/02/22-rdf-syntax-ns#"
   xmlns:svg="http://www.w3.org/2000/svg"
   xmlns="http://www.w3.org/2000/svg"
   xmlns:sodipodi="http://sodipodi.sourceforge.net/DTD/sodipodi-0.dtd"
   xmlns:inkscape="http://www.inkscape.org/namespaces/inkscape"
   id="svg2"
   sodipodi:docname="spider.svg"
   inkscape:export-filename="C:\Users\Gregory\Downloads\Tabletop_Connect_Photon_Server\MyStuff\Cardstock_Miniatures\Spider.png"
   viewBox="0 0 990.00002 731.22219"
   inkscape:export-xdpi="90"
   version="1.1"
   inkscape:export-ydpi="90"
   inkscape:version="1.0.1 (3bc2e813f5, 2020-09-07)">
  <defs
     id="defs47" />
  <sodipodi:namedview
     id="namedview52"
     fit-margin-left="0"
     inkscape:zoom="1.0325179"
     borderopacity="1"
     inkscape:current-layer="svg2"
     inkscape:cx="495.00001"
     inkscape:guide-bbox="true"
     inkscape:window-maximized="1"
     showgrid="false"
     fit-margin-right="0"
     showguides="true"
     bordercolor="#666666"
     inkscape:window-x="-8"
     guidetolerance="10"
     objecttolerance="10"
     inkscape:window-y="-8"
     fit-margin-bottom="0"
     inkscape:window-width="1920"
     inkscape:pageopacity="0"
     inkscape:pageshadow="2"
     pagecolor="#ffffff"
     gridtolerance="10"
     inkscape:cy="365.61109"
     inkscape:window-height="1017"
     fit-margin-top="0"
     inkscape:document-rotation="0" />
  <path
     id="path1092"
     style="fill:#800080;stroke:none;stroke-width:1.62656px"
     d="m 664.92969,-3.1972656 c -9.10308,0.062932 -18.20462,0.4473613 -27.27534,1.2278529 -20.55017,1.77155721 -40.96103,4.8811157 -61.26937,8.4393218 -12.61085,2.2449301 -25.19609,4.6419779 -37.73099,7.2794029 -18.78497,4.122349 -37.25437,10.621764 -53.53269,21.010398 -12.95915,8.272316 -24.33361,19.206056 -32.42974,32.32491 -8.26876,13.309673 -13.09773,28.59473 -14.80879,44.12965 -2.14213,18.95049 -0.0786,38.19493 4.55263,56.63444 1.24978,4.90469 2.68569,9.76351 4.36733,14.53801 -0.51895,0.33531 -1.1713,0.96387 -1.06163,-0.0828 -0.63645,-3.96865 -2.65243,-7.53067 -4.67665,-10.94067 -4.54585,-7.18877 -9.86044,-13.85097 -15.19597,-20.46127 -12.48275,-15.23529 -25.58821,-29.94642 -38.76479,-44.58148 -1.87481,-2.03269 -3.67298,-4.15232 -5.59516,-6.13125 -24.70082,-17.546082 -49.40151,-35.092346 -74.10228,-52.638499 3.27164,-0.394238 6.37591,-1.706194 9.06416,-3.591035 2.01346,-1.30597 4.02338,-2.619341 6.03545,-3.928496 -22.4971,-9.895685 -44.99426,-19.791213 -67.49024,-29.689453 -1.02996,1.121148 -1.77018,2.618238 -3.16901,3.328155 -3.24209,0.986485 -6.84269,0.641789 -9.88786,2.308885 -3.60598,1.76368 -5.6521,5.622057 -6.33682,9.441388 -1.19962,6.580458 -0.37548,13.301785 0.45763,19.872596 0.19531,0.542031 -0.0871,1.432543 0.47871,1.704653 11.04392,5.119786 21.8338,11.156813 31.57831,18.58603 9.7236,7.32017 18.38208,15.913092 26.95522,24.518058 -45.05449,-6.593491 -90.11388,-13.154893 -135.16992,-19.738281 6.65086,-1.271019 13.31544,-2.484948 19.95236,-3.819533 4.1649,-1.165851 8.32988,-2.331454 12.4949,-3.496873 -4.20613,-1.326157 -8.38188,-2.747217 -12.58969,-4.064967 -4.32766,-1.171354 -8.77096,-1.911446 -13.23615,-2.416992 -12.18593,-1.345388 -24.55741,-0.309735 -36.48585,2.419603 -6.25656,1.404676 -12.40157,3.259837 -18.48714,5.27134 -2.15425,7.676199 -4.07002,15.630338 -3.34111,23.661779 0.48389,5.471609 2.81434,10.925783 7.0797,14.504252 4.40548,3.84667 10.07054,5.65621 15.31806,8.00987 1.57148,0.58514 3.28379,0.51287 4.9191,0.81253 15.42345,1.99084 30.8469,3.98167 46.27035,5.97251 -19.22526,1.73047 -38.45052,3.46093 -57.67579,5.1914 -8.77352,-0.87155 -17.81203,-1.30454 -26.394526,1.10157 -8.413708,2.29657 -15.848316,7.55219 -21.306924,14.29825 -6.660715,8.05604 -11.051389,17.69953 -14.56724,27.46882 -1.627487,4.52469 -2.941059,9.15331 -4.310333,13.75817 -2.822281,7.47244 -4.531291,15.31969 -6.759002,22.92645 -1.753218,5.9033 -3.609582,11.9722 -7.381636,16.94203 -2.056229,2.62303 -5.08891,4.61044 -8.4776,4.82307 -3.300865,0.31718 -6.540238,-0.61972 -9.658203,-1.57031 -3.757777,-0.48074 -7.515588,-0.96123 -11.273437,-1.44141 2.660556,2.75608 5.225771,5.605 7.919739,8.32746 1.068516,0.95228 2.228921,1.6537 3.315385,2.54128 4.41007,3.39799 9.008971,6.9298 14.540427,8.2165 4.785493,1.12075 9.872906,0.36645 14.308322,-1.67282 6.837249,-3.05044 12.50743,-8.12192 17.736452,-13.37576 6.504472,-6.59372 12.234817,-13.89392 17.781237,-21.29642 1.952529,-8.78683 4.714272,-17.62253 10.010866,-25.01421 3.843063,-5.47301 9.404353,-9.69466 15.704183,-11.93514 4.5783,-1.64017 9.40776,-2.45159 14.23612,-2.90612 0.66752,-0.0571 1.65321,-0.14406 2.44647,-0.19486 4.30072,-0.28789 8.65297,-0.41038 12.89867,-0.52461 33.85877,-0.75763 67.71931,-1.43601 101.57829,-2.18498 4.36175,-0.0675 8.72108,-0.22263 13.08165,-0.31795 4.56838,-0.0328 9.13975,0.21929 13.67266,0.79271 0.56133,0.0455 1.3433,0.11865 0.32226,0.50391 -3.55519,2.15289 -5.85679,5.69521 -8.4378,8.84016 -0.84916,1.00536 -1.74563,1.98863 -2.8161,2.76335 -12.15643,-1.34999 -24.55852,-1.97372 -36.65311,0.24841 -7.58784,1.43929 -14.97767,4.3342 -21.16198,9.01829 -7.68397,5.64689 -13.18922,13.7759 -21.17515,19.05166 -1.81426,1.07668 -3.54721,2.27575 -5.19559,3.59142 -5.11832,3.84617 -10.24383,7.52357 -15.53683,11.11952 -10.06109,6.81859 -20.64717,13.28111 -31.46059,19.0339 -19.31054,10.3108 -39.745473,18.57921 -60.933549,24.13 -0.755887,0.19591 -1.104785,1.05523 -1.680079,1.54508 -5.47433,6.07053 -11.922803,11.17006 -18.686133,15.72542 -7.110607,4.85928 -14.434628,9.58154 -20.391917,15.8753 -7.21093,7.4962 -12.262059,16.81016 -15.83573,26.51715 -4.4914999,12.12016 -7.111533,24.83749 -9.1395454,37.57322 -0.338443,1.87615 -0.039744,3.78843 -0.2599723,5.67816 -0.7158128,9.79593 -5.01645259,18.83175 -6.6099709,28.46089 -1.3376045,7.29497 -0.9337765,14.89038 1.1819795,21.99918 2.7281299,9.3927 7.851161,17.86882 13.5551701,25.73463 2.216519,3.10203 4.442456,6.19916 6.662681,9.29934 0.230556,-10.26098 0.200641,-20.45079 1.23177,-30.67353 0.205413,-2.04226 0.418347,-3.91655 0.683857,-5.96496 1.451787,-11.38022 4.200516,-22.59007 8.198134,-33.34423 0.759347,-2.04752 1.565863,-4.26976 2.492233,-6.3328 6.047592,-7.79531 11.155616,-16.2509 16.585413,-24.47355 4.40443,-6.60266 9.04598,-13.29956 14.701542,-18.98762 4.948542,-4.96021 10.890177,-9.17002 17.689083,-11.11003 1.892462,-0.39204 3.182529,-1.9628 4.737216,-2.98254 21.618998,-16.21578 46.153068,-27.83419 70.255258,-39.79857 15.91192,-7.87596 31.84842,-15.87153 46.5601,-25.87003 3.54594,-2.40981 6.969,-4.99772 10.36026,-7.61528 10.94198,-6.74903 22.54255,-12.78003 35.11245,-15.81028 5.91735,-1.39371 12.07739,-1.97946 18.12706,-1.2026 0.80596,0.10188 1.88063,0.27224 2.78506,0.46211 7.12882,1.40758 13.65022,5.09189 19.03384,9.90547 6.46828,5.7658 11.55935,12.87959 16.16151,20.1723 7.49179,11.95672 13.72869,24.74033 21.21257,36.75827 1.27465,2.14011 2.71043,4.17149 4.17028,6.187 2.24642,3.26413 4.29798,6.66709 6.24526,10.0501 3.64134,6.36575 7.01751,12.8799 10.76062,19.18741 -5.00956,4.09294 -9.93292,8.53332 -13.26152,14.15121 -2.02665,3.48803 -3.10128,7.8036 -1.76582,11.7316 1.41861,4.27763 5.09859,7.30106 8.91211,9.42773 5.24681,2.93573 11.01824,4.71838 16.625,6.81641 -0.0202,-0.79688 -0.0404,-1.59375 -0.0605,-2.39062 2.21513,0.81118 4.43412,1.61459 6.65039,2.42382 -0.19484,-5.03793 -0.74295,-10.23013 0.83261,-15.11919 0.40979,-1.37759 0.94819,-2.71589 1.58926,-4.0019 0.65521,0.44745 1.32172,0.87917 2.00586,1.28125 -0.67997,0.92396 -1.35666,1.85034 -2.03515,2.77539 5.7286,1.72292 11.52457,3.47801 17.53711,3.79102 2.95471,0.2068 5.91401,-0.10647 8.8678,0.0838 9.00189,0.13582 17.93912,-2.54457 25.59727,-7.2267 4.27958,-2.55802 8.15619,-5.72733 11.83291,-9.07561 1.12633,-0.69657 2.25767,-1.38484 3.36999,-2.10371 3.49526,2.32217 7.06763,4.52875 10.71289,6.60742 -8.41477,5.36758 -16.71601,11.03087 -24.01302,17.87644 -3.82996,3.65866 -7.49125,7.78772 -9.27247,12.86219 -1.24245,3.67386 -0.89406,7.95525 1.39041,11.15849 2.73848,4.06162 7.20577,6.46595 11.55784,8.437 4.07401,1.80528 8.30881,3.20587 12.48372,4.75377 -0.0202,-0.79752 -0.0404,-1.59505 -0.0606,-2.39258 2.20043,0.80991 4.40703,1.60336 6.60938,2.40821 -0.0696,-2.2689 -0.18121,-4.53679 -0.21289,-6.80664 0.33207,5.35362 2.86195,10.2927 5.875,14.625 1.24198,1.77362 2.60998,3.45368 3.99414,5.11718 1.82378,0.73889 3.64785,1.48066 5.50976,2.11914 0.52745,1.24732 1.97267,1.42753 3.06785,1.9252 5.49416,2.16675 11.27996,4.1114 17.26051,3.93642 1.23271,-0.0566 2.46123,-0.23736 3.65211,-0.56279 -2.62625,14.50149 -5.30269,28.99071 -7.88312,43.49988 -0.7436,7.59532 -1.69489,15.20885 -2.87545,22.69559 -1.91661,12.17041 -4.47246,24.14058 -7.61871,36.04179 -4.6774,17.87147 -10.63915,35.46504 -15.35295,53.36174 -4.00778,15.0102 -6.98282,30.29916 -8.80492,45.72913 -6.12758,13.39857 -10.04372,27.86745 -10.94075,42.59614 -0.91757,13.80446 0.7434,27.59476 2.3907,41.27892 0.62212,5.21348 1.14789,10.45987 1.61229,15.64507 0.58062,4.44961 1.16071,8.89929 1.74049,13.34901 1.57963,-3.49856 3.17007,-6.9925 4.74219,-10.49414 0.53789,4.56157 1.19312,9.10978 1.76367,13.66797 2.35854,-5.31439 4.93385,-10.5375 7.06445,-15.94977 4.66417,-11.91018 9.37413,-23.80264 14.05469,-35.70648 1.51519,-13.28237 5.30043,-26.26518 10.87451,-38.40417 6.00064,-13.29087 13.96162,-25.54556 21.41716,-38.03832 2.86715,-4.85379 5.68545,-9.75458 8.16689,-14.81347 6.27171,-28.17865 11.02898,-56.66075 15.98773,-85.09267 4.99899,-28.46579 10.4807,-56.95358 19.23088,-84.59249 2.12265,-6.7302 4.41975,-13.40615 6.91853,-20.00615 5.63478,2.8283 11.9259,4.07737 18.18623,4.4079 8.09326,0.52206 16.19857,-0.1499 24.25127,-0.93915 9.71786,-6.94489 17.53345,-16.0871 25.26923,-25.08739 2.78161,-3.21496 5.56717,-6.42895 8.48273,-9.52394 1.05173,-1.10889 2.26804,-2.36738 3.43219,-3.48855 5.87743,-5.73094 12.65445,-10.83025 20.5504,-13.37193 3.40236,-1.11655 6.9468,-1.81388 10.52327,-2.01842 2.57645,53.22647 11.25939,106.3539 28.19222,156.96024 0.73133,2.18388 1.47566,4.36274 2.22184,6.54171 6.77495,4.73062 12.36383,11.12051 16.15724,18.46078 2.52518,4.76077 4.41356,9.97808 5.88573,15.06266 1.64747,5.7128 2.913,11.8063 4.06175,17.77489 1.1911,6.12584 2.23535,12.28815 3.67262,18.35987 2.67658,6.70121 4.9529,13.70095 6.75196,20.60352 1.02174,3.93594 1.93871,7.99448 2.70514,12.05504 1.4853,7.79932 2.50437,15.73984 3.13326,23.71335 0.80226,10.07607 0.988,20.21897 0.74132,30.39087 -0.20051,8.41385 -0.73859,17.01945 -1.47035,25.38175 -0.54532,6.08321 -1.20006,12.15627 -1.95703,18.2168 -0.30012,2.34921 -0.61958,4.80382 -0.9459,7.19738 -0.13801,1.02329 -0.27477,2.04674 -0.41152,3.0702 2.24704,0.50573 4.47181,1.14806 6.76562,1.41211 -0.0803,0.61073 -0.16152,1.22134 -0.24218,1.83203 4.05202,1.0525 8.30196,2.13691 12.49389,1.24058 5.40594,-0.97939 9.89865,-4.83454 12.67267,-9.45142 3.8045,-6.11645 5.65209,-13.19345 7.06178,-20.18853 2.40586,-12.43489 3.16798,-25.10849 3.78274,-37.73614 0.84662,-18.70806 0.96616,-37.42223 1.95347,-56.10391 0.325,-6.05491 0.75567,-12.12638 1.39188,-18.19884 0.2663,-2.47897 0.54037,-4.79438 0.89239,-7.2693 0.52277,-3.8438 1.24731,-7.65497 2.04219,-11.45064 -8.18925,-11.67229 -15.79161,-23.87792 -21.7556,-36.90322 -4.68753,-10.18749 -8.31933,-20.96033 -11.08034,-31.74717 -3.04822,-11.95179 -5.21601,-24.26779 -7.07274,-36.47972 -3.40202,-22.92927 -5.96069,-45.95135 -8.77036,-68.95206 -1.7196,-14.15547 -3.36434,-28.32108 -5.37768,-42.43922 -0.15752,-1.14131 -0.31505,-2.28262 -0.47258,-3.42393 22.13028,26.99468 44.68814,53.69971 69.11899,78.65856 14.80075,15.06191 30.28843,29.52407 47.19547,42.21254 7.54235,8.85593 17.05516,15.82987 24.24483,25.00863 7.05249,8.83073 12.27337,18.95295 16.78056,29.27066 1.58849,3.67839 3.14522,7.55834 4.58851,11.36719 0.31454,0.84943 0.77162,1.67396 0.5947,2.60922 -0.25896,13.03108 -1.97899,26.00066 -1.81791,39.04547 0.13119,17.45291 3.38624,34.74319 8.18038,51.47945 1.00464,3.58506 2.06012,7.15578 3.09299,10.73305 1.31465,-1.8664 2.62938,-3.73274 3.94336,-5.59961 0.85187,2.95311 1.70583,5.90627 2.55859,8.85938 4.56695,-6.40166 9.21966,-12.78786 12.82098,-19.80173 7.67254,-14.53119 12.34059,-30.44334 15.6345,-46.48236 1.52443,-7.55492 2.80329,-15.16699 3.73189,-22.81573 -1.06721,-14.09143 1.49719,-28.11042 1.54214,-42.18925 0.023,-7.81003 -0.79859,-15.78626 -3.93643,-23.01612 -2.78649,-6.60394 -7.60906,-12.23952 -13.46178,-16.33421 -3.0042,-2.1603 -6.32468,-3.81908 -9.38746,-5.89097 -13.96724,-9.03077 -26.43308,-20.22622 -37.62022,-32.49814 -10.39638,-11.33201 -19.7918,-23.49564 -29.52225,-35.37567 -3.91374,-4.63828 -7.66157,-9.36982 -11.1576,-14.31576 -14.76378,-20.78494 -26.36145,-43.64185 -41.50418,-64.17126 -7.75061,-10.57645 -16.40441,-20.52351 -26.11224,-29.35295 -2.0892,-3.5358 -4.17839,-7.07161 -6.26758,-10.60742 4.29959,1.10181 8.53145,2.44733 12.80664,3.63282 15.3459,3.21409 30.04506,8.90532 44.31055,15.3164 7.32375,3.30342 14.66942,6.88598 21.8136,10.67492 19.2874,10.08722 38.23376,20.81394 57.61022,30.73133 3.60057,3.18008 7.95978,5.30252 12.29677,7.27379 6.60614,3.79436 14.00382,5.82961 20.95105,8.86171 5.06661,2.95249 9.24403,7.54161 11.29558,13.07355 1.65855,4.28027 2.3249,8.87707 2.52106,13.4433 0.0192,0.45461 0.0371,1.07955 0.0457,1.63149 0.0796,4.77525 -0.42558,9.53321 -0.94412,14.27154 -0.50809,15.40519 1.7506,31.07762 7.94516,45.26589 3.91752,8.88479 9.4987,17.29389 17.35172,23.16311 2.68525,1.98994 5.66017,3.57588 8.77609,4.76998 6.37866,4.12524 14.38771,5.93534 21.85684,4.22856 2.78882,-0.61661 5.57061,-1.26519 8.35925,-1.88331 -3.8793,-3.44819 -8.09078,-6.58287 -11.42968,-10.58984 -0.95652,-1.18996 -1.85453,-2.42903 -2.66016,-3.72656 -0.26546,-0.42046 -0.68279,-1.13199 -0.97841,-1.68466 -3.3892,-6.27787 -4.84553,-13.39444 -5.47862,-20.44425 -0.0972,-1.13829 -0.19583,-2.52256 -0.2533,-3.76058 -0.13099,-2.7029 -0.15847,-5.72009 -0.0902,-8.5794 0.0945,-4.20305 0.38962,-8.57727 0.81024,-12.83098 0.67431,-6.68473 1.33047,-13.37859 1.45278,-20.10099 0.33622,-13.47124 -0.87026,-27.18122 -5.48209,-39.92711 -3.48979,-9.62479 -9.05692,-18.45945 -16.11615,-25.86467 -9.47919,-10.05134 -21.03065,-17.801 -32.54379,-25.30526 -9.75155,-6.3262 -19.60283,-12.50772 -29.21402,-19.04394 -1.99101,-0.9758 -3.96918,-1.68498 -5.87791,-2.82179 -1.99546,-1.2082 -4.21577,-1.97672 -6.29828,-3.01783 -20.73332,-9.51458 -41.48936,-18.98572 -62.20203,-28.54149 -6.28495,-4.09615 -12.90615,-7.64858 -19.66537,-10.8919 -2.92439,-1.51936 -5.8993,-2.94129 -8.9144,-4.27109 6.21827,-13.79738 8.92745,-28.89379 10.09961,-43.90039 0.37847,-4.9118 0.50299,-9.84469 0.65546,-14.76243 3.60546,-12.89065 3.37103,-26.5933 0.88875,-39.66535 C 801.22865,122.17896 794.45935,105.96336 786.25459,90.703015 776.52789,72.740635 764.72234,55.940083 751.52453,40.364532 745.87665,33.770957 740.03648,27.2983 733.48828,21.580078 730.08259,18.774618 726.58,16.088447 723.09897,13.377845 716.76681,8.58413 709.7955,4.5470092 702.22928,2.0548823 690.62237,-1.870328 678.27962,-2.9145461 666.10352,-3.1386719 c -0.39018,-0.063478 -0.77935,-0.071205 -1.17383,-0.058594 z M 310.83008,176.16406 c 10.60799,7.46223 20.01805,16.48089 30.66992,23.88477 3.34701,4.1263 6.69401,8.2526 10.04102,12.3789 -9.41244,-8.07103 -18.77987,-16.19716 -28.08428,-24.39149 -4.38349,-4.25457 -8.80988,-8.47078 -13.45479,-12.44054 0.27604,0.18946 0.55209,0.37891 0.82813,0.56836 z m 145.80078,193.13672 c -0.8471,1.15422 -1.65949,2.33938 -2.79884,3.23029 -4.24082,3.88395 -8.54875,8.06622 -10.669,13.53736 -0.4409,1.13729 -0.75798,2.3221 -0.95599,3.52532 0.77227,-6.38442 4.24061,-12.24847 9.05209,-16.44156 1.70223,-1.48964 3.53828,-2.82593 5.47526,-3.99399 l -0.0588,0.0809 z" />
  <g
     id="g3051"
     transform="matrix(6.6526 0 0 6.6526 -.0000033841 -4358)">
    <path
       id="path2849"
       style="stroke:#000000;stroke-width:0.2445px;fill:#1a1a1a;fill-opacity:1"
       inkscape:connector-curvature="0"
       d="m67.418 685.24c-2.9025-4.2956 3.1624 0.37607-10.448-14.628l-17.414-12.37c5.0687 4.2898 6.781 3.5568 7.6624 2.9604l-8.7091-3.8311c-0.9202 1.1824-3.1641-0.94478-2.438 4.3536 5.3304 2.5061 7.1426 5.0475 11.145 8.8812l5.5727 2.2639 10.1 13.931 4.5277-1.5673z" />
    <path
       id="path2851"
       style="stroke:#000000;stroke-width:0.2445px;fill:#1a1a1a;fill-opacity:1"
       inkscape:connector-curvature="0"
       d="m64.807 686.8-10.449-12.88c-0.64431-2.2479-3.8841-3.847-10.1-4.7018l-23.858-3.4829 6.4433-1.219c-3.4648-0.85641-6.5741-0.29164-9.5778 0.69658-1.3554 4.8357 0.84179 5.104 2.6122 5.9208l21.594 2.7863c3.6071 0.97472 7.8727 0.96135 9.7519 4.5277l9.4037 10.971 4.1795-2.6122z" />
    <path
       id="path2853"
       style="stroke:#000000;stroke-width:0.2445px;fill:#1a1a1a;fill-opacity:1"
       inkscape:connector-curvature="0"
       d="m59.234 693.94 2.438-5.5727-8.1847-10.971c-4.4866-6.4842-12.237-3.9976-17.413-4.8778l-17.414 1.5673c-3.613-0.359-7.157-0.28265-9.4037 8.0106-1.2747 3.2379-1.2908 8.4534-5.5727 6.9658 2.0199 1.4226 3.6281 3.8741 9.2297-3.657 1.4262-6.4436 5.1976-6.3204 8.8812-6.4433l16.369-0.3483c7.28-0.3765 9.7524 3.4533 13.583 6.0949l7.4881 9.2297z" />
    <path
       id="path2855"
       style="stroke:#000000;stroke-width:0.2445px;fill:#1a1a1a;fill-opacity:1"
       inkscape:connector-curvature="0"
       d="m65.677 704.91c-11.43 7.837-12.42-1.1443-16.021-5.9208-4.034-6.178-6.1477-15.663-18.111-8.1847-5.1978 4.2008-13.345 6.5186-19.504 11.319-3.7057 1.022-5.3844 5.4218-7.8365 8.5331-0.98456 2.4436-1.8478 5.1905-1.9156 9.9262-4.2484-5.8392-0.91568-7.8878-1.0448-11.668 1.776-11.489 5.5824-9.8067 9.5778-14.28 5.5727-1.4733 11.145-4.2736 16.718-8.5331 3.2223-1.8427 2.9308-5.4421 12.016-4.3536 1.8266-0.8757 1.2985-5.193 8.7072 2.0897 13.841 12.125 9.4595 7.3786 12.016 9.0553l5.3983 12.016z" />
    <g
       id="g3104"
       transform="matrix(.24450 0 0 .24450 -.24414 654.35)">
      <path
         id="path3096"
         style="stroke:#000000;stroke-width:1px;fill:#000000"
         inkscape:connector-curvature="0"
         d="m374.9 172.38c18.49-13.119 45.42-55.677 74.529-26.618 13.521-1.113 35.226 1.3224 56.34 15.395l44.807 20.538c32.036 21.87 54.401 27.848 49.242 75.86-2.6813 24.439 2.6118 32.928 9.3161 38.595-14.885 3.5938-28.783-16.507-27.761-43.3 4.5222-33.701-18.597-28.125-29.467-37.883-27.367-13.953-55.559-32.027-81.184-37.265-63.562-19.584-53.235 14.196-79.853 21.294l-15.971-26.618z" />
      <path
         id="path3098"
         style="stroke:#000000;stroke-width:1px;fill:#000000"
         inkscape:connector-curvature="0"
         d="m378.32 179.6c16.619-1.6182 60.303-19.429 76.922-9.2591l9.2591 15.669c22.674 20.5 30.801 45.784 48.432 66.238 12.849 15.774 24.715 32.039 44.871 44.159 19.1 10.615 9.9657 31.133 11.396 49.857-3.3028 25.012-9.296 39.263-16.381 49.144-8.5795-29.247-4.4295-40.674-4.2734-57.691-11.181-30.168-19.756-31.661-29.202-42.734-28.336-21.097-58.215-57.942-81.195-86.181l-47.008 4.2734-12.82-33.475z" />
      <path
         id="path3100"
         style="stroke:#000000;stroke-width:1px;fill:#000000"
         inkscape:connector-curvature="0"
         d="m329.18 246.55c7.6956 2.8162 7.9572 8.1103 31.339 5.6979 16.778-12.297 23.844-35.807 49.144-32.763 1.4558 37.255 7.566 71.717 18.518 103.27 14.277 10.43 15.037 27.619 18.518 43.447 7.5246 18.846 11.405 43.939 5.6979 85.469 23.901 6.0896 13.621-62.734 20.655-95.44-23.392-33.564-22.821-52.427-32.051-126.07l-5.6979-41.31c-41.592-34.405-84.12 41.356-110.4 21.367l4.2734 36.324z" />
      <path
         id="path3102"
         style="stroke:#000000;stroke-width:1px;fill:#000000"
         inkscape:connector-curvature="0"
         d="m284.3 257.23c-11.833-14.04-0.32481-18.743 5.6979-25.641 8.5469-14.095 17.094-27.18 25.641-26.353 7.824-7.8828 36.418-27.026 35.457 9.0166-31.743 53.478-30.955 95.143-44.004 154.09-8.1382 16.271-21.963 31.374-24.928 56.267l-9.2591 23.504c-1.4075-18.729-6.7968-35.751 4.2734-59.828 4.4392-38.018 17.148-53.978 21.367-97.577l11.396-62.677-4.9857 22.792c-6.3214 2.6198-2.5269 13.91-20.655 6.4102z" />
    </g>
    <path
       id="path3068"
       style="stroke:#000000;stroke-width:.24450px;fill:#1a1a1a"
       inkscape:connector-curvature="0"
       d="m99.457 655.21c-3.8306 0.0282-9.383 0.69844-17.803 2.4068-22.455 4.5555-13.663 25.382-13.663 25.382-0.47846-1.6009 25.773-1.4239 23.755 20.821-0.52722 5.8142 0.26338 2.9912 1.2989 4.8824 1.0355 1.8911 20.165-6.1917 27.01-26.36 3.1272-9.2128-7.9658-21.851-10.416-23.746-2.1883-1.6927-3.7995-3.4318-10.183-3.3849z" />
    <path
       id="path3080"
       style="stroke:#000000;stroke-width:.56819px;fill:#000000"
       sodipodi:nodetypes="ccccc"
       inkscape:connector-curvature="0"
       d="m119.49 673.17c-3.3806 24.478-9.9115 8.8466-29.765 17.666l-3.3032 6.7775c14.516-3.8815 38.136 9.6521 33.068-24.443z" />
    <path
       id="path2996"
       style="stroke:#000000;stroke-width:.24450px;fill:#1a1a1a"
       inkscape:connector-curvature="0"
       d="m90.442 696.01c4.5208-3.2076 11.105-13.613 18.222-6.5081 3.3059-0.27213 8.6128 0.32332 13.775 3.7641l10.955 5.0216c7.8328 5.3472 13.301 6.8089 12.04 18.548-0.65558 5.9754 0.63859 8.0509 2.2778 9.4365-3.6394 0.87869-7.0375-4.036-6.7876-10.587 1.1057-8.2399-4.547-6.8766-7.2047-9.2624-6.6912-3.4115-13.584-7.8306-19.85-9.1113-15.541-4.7883-13.016 3.4709-19.524 5.2064l-3.9049-6.5081z" />
    <path
       id="path2998"
       style="stroke:#000000;stroke-width:.24450px;fill:#1a1a1a"
       inkscape:connector-curvature="0"
       d="m91.276 697.77c4.0634-0.39565 14.744-4.7504 18.807-2.2638l2.2639 3.8311c5.5438 5.0123 7.5309 11.194 11.842 16.195 3.1416 3.8568 6.0428 7.8336 10.971 10.797 4.67 2.5954 2.4366 7.612 2.7863 12.19-0.80754 6.1154-2.2729 9.5998-4.0052 12.016-2.0977-7.1509-1.083-9.9448-1.0448-14.106-2.7338-7.3761-4.8304-7.7411-7.1399-10.448-6.9282-5.1582-14.234-14.167-19.852-21.071l-11.493 1.0448-3.1345-8.1847z" />
    <path
       id="path3642"
       style="stroke:#000000;stroke-width:.24450px;fill:#1a1a1a"
       inkscape:connector-curvature="0"
       d="m64.807 684.71 3.8311-2.438c-1.8009 0.72739 14.128-4.6494 23.335 13.235l1.0448 6.2692c-3.1277 4.1113-3.9976 3.9956-11.319 6.6174-8.1267 2.5849-15.731-0.91558-23.335-8.8812-0.07459-5.0399-2.6902-10.201 6.4433-14.802z" />
    <path
       id="path3688"
       sodipodi:nodetypes="ccccc"
       inkscape:connector-curvature="0"
       style="stroke:#000000;stroke-width:.30541px;fill:#000000"
       d="m91.78 694.02c-1.9966 11.975-5.8538 4.3278-17.579 8.6422l-1.9509 3.3156c8.5732-1.8988 22.523 4.7218 19.53-11.958z" />
    <path
       id="path3000"
       style="stroke:#000000;stroke-width:.24450px;fill:#1a1a1a"
       inkscape:connector-curvature="0"
       d="m79.261 714.14c1.8816 0.68857 1.9455 1.983 7.6624 1.3931 4.1022-3.0066 5.8299-8.7548 12.016-8.0106 0.35594 9.1089 1.8499 17.535 4.5277 25.25 3.4907 2.5501 3.6766 6.7529 4.5277 10.623 1.8398 4.6079 2.7885 10.743 1.3931 20.897 5.8438 1.4889 3.3304-15.339 5.0502-23.335-5.7194-8.2064-5.5798-12.818-7.8365-30.824l-1.3931-10.1c-10.169-8.412-20.567 10.112-26.993 5.2242l1.0448 8.8812z" />
    <path
       id="path3693"
       style="fill:#ffffff"
       inkscape:connector-curvature="0"
       d="m68.789 701.95c0 0.8192-0.66409 1.4833-1.4833 1.4833-0.8192 0-1.4833-0.66409-1.4833-1.4833 0-0.8192 0.66409-1.4833 1.4833-1.4833 0.8192 0 1.4833 0.66409 1.4833 1.4833z" />
    <path
       id="path3695"
       style="fill:#ffffff"
       inkscape:connector-curvature="0"
       d="m63.598 698.74c0 0.8192-0.66409 1.4833-1.4833 1.4833-0.8192 0-1.4833-0.66409-1.4833-1.4833 0-0.8192 0.66409-1.4833 1.4833-1.4833 0.8192 0 1.4833 0.66409 1.4833 1.4833z" />
    <path
       id="path3130"
       style="stroke:#000000;stroke-width:.24450px;fill:#ffffff"
       inkscape:connector-curvature="0"
       d="m64.105 704.92c-2.7193 3.1394-5.4387 3.7761-8.1583 2.9665l2.7193-3.7083c-1.4702 0.0431-5.8678 1.4192-5.6859 5.4387-3.3499-1.1959-5.6145-2.7695 5.9333-9.147 3.744 1.9542 2.8861 3.3971 0.74164 4.6971 1.9239-1.4042 3.8159-2.7127 4.4499-0.24722z" />
    <path
       id="path3699"
       style="stroke:#000000;stroke-width:.24450px;fill:#000000"
       inkscape:connector-curvature="0"
       d="m65.083 704.92c-2.7193 3.1394-5.4387 3.7761-8.1583 2.9665l2.7193-3.7083c-1.4702 0.0431-5.8678 1.4192-5.6859 5.4387-3.3499-1.1959-5.6145-2.7695 5.9333-9.147 3.744 1.9542 2.8861 3.3971 0.74164 4.6971 1.9239-1.4042 3.8159-2.7127 4.4499-0.24722z" />
    <path
       id="path3072"
       style="fill:#ffffff"
       inkscape:connector-curvature="0"
       d="m62.187 692.84c0 0.4018-0.32571 0.72751-0.72751 0.72751-0.40179 0-0.72751-0.32571-0.72751-0.72751 0-0.40179 0.32571-0.7275 0.72751-0.7275 0.40179 0 0.72751 0.32571 0.72751 0.7275z" />
    <path
       id="path3074"
       style="fill:#ffffff"
       inkscape:connector-curvature="0"
       d="m65.121 695.87c0 0.40179-0.32571 0.72751-0.72751 0.72751-0.40179 0-0.72751-0.32572-0.72751-0.72751s0.32571-0.72751 0.72751-0.72751c0.40179 0 0.72751 0.32572 0.72751 0.72751z" />
    <path
       id="path3076"
       style="fill:#ffffff"
       inkscape:connector-curvature="0"
       d="m68.96 697.99c0 0.4018-0.32571 0.72751-0.72751 0.72751-0.40179 0-0.72751-0.32571-0.72751-0.72751 0-0.40179 0.32571-0.7275 0.72751-0.7275 0.40179 0 0.72751 0.32571 0.72751 0.7275z" />
    <path
       id="path3078"
       style="fill:#ffffff"
       inkscape:connector-curvature="0"
       d="m73.711 699.21c0 0.40179-0.32571 0.7275-0.72751 0.7275-0.40179 0-0.72751-0.32571-0.72751-0.7275 0-0.4018 0.32571-0.72751 0.72751-0.72751 0.40179 0 0.72751 0.32571 0.72751 0.72751z" />
    <g
       id="g3122"
       style="fill:#000000"
       transform="matrix(.24450 0 0 .24450 -.73314 653.86)">
      <path
         id="path3110"
         style="fill:#000000"
         inkscape:connector-curvature="0"
         d="m286.34 196.68c0 3.3505-2.7161 6.0666-6.0666 6.0666s-6.0666-2.7161-6.0666-6.0666 2.7161-6.0666 6.0666-6.0666 6.0666 2.7161 6.0666 6.0666z" />
      <path
         id="path3112"
         style="fill:#000000"
         inkscape:connector-curvature="0"
         d="m265.11 183.54c0 3.3505-2.7161 6.0666-6.0666 6.0666s-6.0666-2.7161-6.0666-6.0666 2.7161-6.0666 6.0666-6.0666 6.0666 2.7161 6.0666 6.0666z" />
      <path
         id="path3114"
         style="fill:#000000"
         inkscape:connector-curvature="0"
         d="m259.34 159.43c0 1.6433-1.3322 2.9755-2.9755 2.9755s-2.9755-1.3322-2.9755-2.9755 1.3322-2.9755 2.9755-2.9755 2.9755 1.3322 2.9755 2.9755z" />
      <path
         id="path3116"
         style="fill:#000000"
         inkscape:connector-curvature="0"
         d="m271.34 171.82c0 1.6433-1.3322 2.9755-2.9755 2.9755s-2.9755-1.3322-2.9755-2.9755 1.3322-2.9755 2.9755-2.9755 2.9755 1.3322 2.9755 2.9755z" />
      <path
         id="path3118"
         style="fill:#000000"
         inkscape:connector-curvature="0"
         d="m287.04 180.48c0 1.6433-1.3322 2.9755-2.9755 2.9755s-2.9755-1.3322-2.9755-2.9755 1.3322-2.9755 2.9755-2.9755 2.9755 1.3322 2.9755 2.9755z" />
      <path
         id="path3120"
         style="fill:#000000"
         inkscape:connector-curvature="0"
         d="m306.47 185.46c0 1.6433-1.3322 2.9755-2.9755 2.9755s-2.9755-1.3322-2.9755-2.9755 1.3322-2.9755 2.9755-2.9755 2.9755 1.3322 2.9755 2.9755z" />
    </g>
    <path
       id="path3232"
       style="stroke:#000000;stroke-width:.24450px;fill:#ffffff"
       inkscape:connector-curvature="0"
       d="m75.987 709.75c-2.7193 3.1394-5.4387 3.7761-8.1583 2.9665l2.7193-3.7083c-1.4702 0.0431-5.8678 1.4192-5.6859 5.4387-3.3499-1.1959-5.6145-2.7695 5.9333-9.147 3.744 1.9542 2.8861 3.3971 0.74164 4.6971 1.9239-1.4042 3.8159-2.7127 4.4499-0.24722z" />
    <path
       id="path3234"
       style="stroke:#000000;stroke-width:.24450px;fill:#000000"
       inkscape:connector-curvature="0"
       d="m76.965 709.75c-2.7193 3.1394-5.4387 3.7761-8.1583 2.9665l2.7193-3.7083c-1.4702 0.0431-5.8678 1.4192-5.6859 5.4387-3.3499-1.1959-5.6145-2.7695 5.9333-9.147 3.744 1.9542 2.8861 3.3971 0.74164 4.6971 1.9239-1.4042 3.8159-2.7127 4.4499-0.24722z" />
    <path
       id="path3842"
       style="stroke:#000000;stroke-width:.24450px;fill:#1a1a1a"
       inkscape:connector-curvature="0"
       d="m68.288 716.76c-2.8932-3.4328-0.07942-4.5827 1.3931-6.2692 2.0897-3.4462 4.1795-6.6455 6.2692-6.4433 1.913-1.9274 8.9042-6.6079 8.6693 2.2046-7.7612 13.075-7.5685 23.263-10.759 37.675-1.9898 3.9783-5.37 7.671-6.0949 13.757l-2.2639 5.7467c-0.34414-4.5792-1.6618-8.7411 1.0448-14.628 1.0854-9.2954 4.1927-13.198 5.2242-23.858l2.7863-15.325-1.219 5.5727c-1.5456 0.64054-0.61783 3.401-5.0502 1.5673z" />
    <g
       id="layer3"
       style="fill:#ff0000"
       transform="matrix(.040929 .0091833 -.018893 .021440 84.153 662.26)">
      <g
         id="g3007"
         style="stroke:#000000;fill:#ff0000">
        <g
           id="g3015"
           style="stroke-width:2;fill:#ff0000"
           transform="matrix(3.1918,0,0,3.1918,-211.83,-177.53)">
          <path
             id="path3167-2-1"
             style="fill:#ff0000"
             inkscape:connector-curvature="0"
             d="m70.062 87.969-32.812 18.941c-2.0019-2.0596-5.2393-2.5662-7.8438-1.0625-3.0744 1.775-4.1502 5.6754-2.375 8.75 1.0739 1.8601 2.9524 2.9857 4.9375 3.1875-0.81765 1.82-0.79279 4.0149 0.28125 5.875 1.7751 3.0746 5.738 4.1188 8.8125 2.3438 2.5932-1.4972 3.7346-4.5526 2.9688-7.3125l35.375-20.406c-0.939-3.669-5.099-5.958-9.344-10.315zm98.938-61.813c-1.0358 0.03009-2.1017 0.28902-3.0625 0.84375-2.6079 1.5057-3.7267 4.546-2.9375 7.3125l-24.59 14.188c3.2342 3.4595 5.6244 7.4091 6.9375 11.688l24.438-14.094c2.007 2.0454 5.2183 2.5603 7.8125 1.0625 3.0747-1.7751 4.1189-5.7067 2.3438-8.7812-1.0739-1.8601-2.9523-2.9858-4.9375-3.1875 0.81791-1.8201 0.79269-3.9836-0.28125-5.8438-1.2204-2.1138-3.44-3.2537-5.7188-3.1875z" />
          <path
             id="path3167-2-1-7"
             style="fill:#ff0000"
             inkscape:connector-curvature="0"
             d="m136.44 87.688c-3.7876 3.8859-7.4754 7.147-8.75 10.625l35.281 20.375c-0.76585 2.7599 0.37552 5.8153 2.9688 7.3125 3.0745 1.775 7.0374 0.73082 8.8125-2.3438 1.074-1.8601 1.0989-4.055 0.28125-5.875 1.9851-0.20183 3.8636-1.3274 4.9375-3.1875 1.7752-3.0746 0.69939-6.975-2.375-8.75-2.6045-1.5037-5.8419-0.99705-7.8438 1.0625l-33.31-19.222zm-99.065-61.532c-2.0576 0.13854-3.9843 1.2659-5.0938 3.1875-1.0739 1.8601-1.0992 4.0236-0.28125 5.8438-1.9852 0.20174-3.8636 1.3274-4.9375 3.1875-1.7751 3.0746-0.73091 7.0061 2.3438 8.7812 2.5942 1.4978 5.8055 0.98292 7.8125-1.0625l23.688 13.688c1.0807-4.2802 3.5502-8.2289 7-11.688l-23.907-13.782c0.789-2.766-0.33-5.806-2.938-7.312-1.153-0.666-2.452-0.927-3.687-0.844z" />
        </g>
        <path
           id="path2998-1"
           style="stroke-width:6.3836;fill:#ff0000"
           inkscape:connector-curvature="0"
           d="m118.52-49.36c-65.882 0-127.13 41.826-119.29 91.964 12.272 78.506 74.406 62.776 45.184 109.62 0 10.846 13.636 20.394 34.212 25.834v-29.524h15.959v32.616c5.1047 0.7204 10.42 1.2513 15.959 1.4962v-34.112h15.959v34.112c5.541-0.24481 10.85-0.77576 15.959-1.4962v-32.616h15.959v29.524c20.606-5.4402 34.312-14.988 34.312-25.834-33.43-37.388 43.295-50.21 45.084-109.62 0-50.747-53.412-91.964-119.29-91.964zm-54.357 71.317c12.59 0 22.841 10.251 22.841 22.841 0 12.591-10.251 22.742-22.841 22.742-12.591 0-22.742-10.151-22.742-22.742s10.151-22.841 22.742-22.841zm114.01 0c12.591 0 22.842 10.251 22.842 22.841 0 12.591-10.251 22.742-22.842 22.742s-22.742-10.151-22.742-22.742 10.151-22.841 22.742-22.841z" />
      </g>
    </g>
  </g>
  <metadata
     id="metadata44">
    <rdf:RDF>
      <cc:Work>
        <dc:format>image/svg+xml</dc:format>
        <dc:type
           rdf:resource="http://purl.org/dc/dcmitype/StillImage" />
        <cc:license
           rdf:resource="http://creativecommons.org/publicdomain/zero/1.0/" />
        <dc:publisher>
          <cc:Agent
             rdf:about="http://openclipart.org/">
            <dc:title>Openclipart</dc:title>
          </cc:Agent>
        </dc:publisher>
        <dc:title></dc:title>
      </cc:Work>
      <cc:License
         rdf:about="http://creativecommons.org/publicdomain/zero/1.0/">
        <cc:permits
           rdf:resource="http://creativecommons.org/ns#Reproduction" />
        <cc:permits
           rdf:resource="http://creativecommons.org/ns#Distribution" />
        <cc:permits
           rdf:resource="http://creativecommons.org/ns#DerivativeWorks" />
      </cc:License>
    </rdf:RDF>
  </metadata>
</svg>
